<svg version="1.2" xmlns="http://www.w3.org/2000/svg" viewBox="0 0 603 239" width="100%" style="height:100%;display: block;">
	<path fill-rule="evenodd" class="st0" d="m16 196.2h17.5q6.2 0 11 2.4 4.8 2.4 7.5 6.7 2.6 4.4 2.6 10.1 0 5.8-2.6 10.1-2.7 4.3-7.5 6.7-4.8 2.4-11 2.4h-17.5zm17 31.1q5.8 0 9.2-3.2 3.4-3.2 3.4-8.7 0-5.5-3.4-8.7-3.4-3.2-9.2-3.2h-8.1v23.8zm67.9 0.2v7.1h-29.7v-38.4h29v7.1h-20.2v8.4h17.8v6.9h-17.8v8.9zm53.3-31.3l-16.6 38.4h-8.8l-16.5-38.4h9.5l11.7 27.4 11.9-27.4zm42.7 31.3v7.1h-29.7v-38.4h29v7.1h-20.2v8.4h17.9v6.9h-17.9v8.9zm17-31.3h8.9v31.2h19.2v7.2h-28.1zm50.1 36.5q-4.8-2.6-7.5-7.1-2.7-4.6-2.7-10.2 0-5.7 2.7-10.2 2.7-4.5 7.5-7.1 4.8-2.6 10.8-2.6 6 0 10.7 2.6 4.8 2.6 7.5 7.1 2.8 4.5 2.8 10.2 0 5.6-2.8 10.2-2.7 4.5-7.5 7.1-4.7 2.5-10.7 2.5-6 0-10.8-2.5zm16.9-6.6q2.8-1.6 4.3-4.4 1.6-2.8 1.6-6.3 0-3.6-1.6-6.4-1.5-2.8-4.3-4.3-2.7-1.6-6.1-1.6-3.4 0-6.2 1.6-2.7 1.5-4.3 4.3-1.5 2.8-1.5 6.4 0 3.5 1.5 6.3 1.6 2.8 4.3 4.4 2.8 1.6 6.2 1.6 3.4 0 6.1-1.6zm56.9-28.2q3.8 1.7 5.8 4.8 2 3.1 2 7.4 0 4.2-2 7.4-2 3.1-5.8 4.8-3.7 1.7-8.8 1.7h-7.8v10.6h-8.9v-38.4h16.7q5.1 0 8.8 1.7zm-3.3 17.1q2.1-1.7 2.1-4.9 0-3.2-2.1-4.9-2-1.8-6-1.8h-7.3v13.4h7.3q4 0 6-1.8zm62.2 19.6v-23.1l-11.3 19h-4l-11.3-18.5v22.6h-8.3v-38.4h7.3l14.4 23.8 14.1-23.8h7.3l0.1 38.4zm57.1-7.2v7.2h-29.8v-38.4h29v7.1h-20.1v8.4h17.8v6.9h-17.8v8.8zm52.1-31.2v38.4h-7.3l-19.1-23.3v23.3h-8.8v-38.4h7.4l19 23.3v-23.3zm27 7.2h-12.3v-7.2h33.4v7.2h-12.3v31.2h-8.8zm39.3 30.5q-4.3-1.2-6.8-3.2l3-6.7q2.5 1.8 5.9 2.9 3.4 1.1 6.7 1.1 3.8 0 5.6-1.1 1.9-1.1 1.9-3 0-1.3-1.1-2.3-1.1-0.8-2.8-1.4-1.6-0.5-4.5-1.2-4.4-1-7.2-2.1-2.8-1-4.8-3.3-2-2.3-2-6.2 0-3.3 1.8-6 1.9-2.7 5.5-4.3 3.6-1.6 8.9-1.6 3.7 0 7.2 0.8 3.5 0.9 6.1 2.6l-2.7 6.7q-5.3-3-10.6-3-3.8 0-5.6 1.2-1.7 1.2-1.7 3.2 0 2 2 2.9 2.1 1 6.3 1.9 4.4 1.1 7.2 2.1 2.8 1 4.8 3.3 2 2.2 2 6.1 0 3.3-1.9 6-1.8 2.7-5.5 4.3-3.6 1.6-8.9 1.6-4.6 0-8.8-1.3zm-364.4-161.3v91.2h-31.9v-91.2c0-7.9-6-13.9-13.9-13.9h-100.3v105.1h-31.8v-105.1h-27.4v-31.9h159.5c25.3 0 45.8 20.5 45.8 45.8zm63.7-38.1h-31.8v-31.9h31.8zm13.9 97.5h22v31.9h-22c-25.2 0-45.7-20.6-45.7-45.8v-66.2h31.8v66.2c0 7.8 6.1 13.9 13.9 13.9zm83.7 0h66.6v31.9h-66.6c-25.2 0-45.7-20.6-45.7-45.8v-115.4h31.8v115.4c0 7.8 6.1 13.9 13.9 13.9z"></path>
	<path fill-rule="evenodd" class="st0" d="m483.4 110.6v7.4c0 7.7 6.2 13.9 13.9 13.9h102.3v31.8h-102.3c-25.2 0-45.7-20.5-45.7-45.7v-45.3c0-25.3 20.5-45.8 45.7-45.8h56.7c25.2 0.1 45.6 20.6 45.6 45.8v37.9zm0-51.9v20h84.3v-6c0-7.7-6.2-13.9-13.9-13.9z"></path>
</svg>